HIERARCHY
ROOT Hips
{
	OFFSET 0.000000 0.000000 0.000000
	CHANNELS 6 Xposition Yposition Zposition Xrotation Yrotation Zrotation
	JOINT LeftUpLeg_virtual
	{
		OFFSET 0.000000 0.000000 0.000000
		CHANNELS 3 Xrotation Yrotation Zrotation
		JOINT LeftUpLeg
		{
			OFFSET 11.394100 -6.187798 -0.413800
			CHANNELS 3 Xrotation Yrotation Zrotation
			JOINT LeftLeg
			{
				OFFSET 0.430247 -32.302673 3.732800
				CHANNELS 3 Xrotation Yrotation Zrotation
				JOINT LeftFoot
				{
					OFFSET -0.430247 -48.264931 -6.423300
					CHANNELS 3 Xrotation Yrotation Zrotation
					JOINT LeftToeBase
					{
						OFFSET 4.230900 -16.068199 23.438400
						CHANNELS 3 Xrotation Yrotation Zrotation
						JOINT LeftToe_End
						{
							OFFSET 4.510700 0.695400 19.974600
							CHANNELS 3 Xrotation Yrotation Zrotation
							End Site
							{
								OFFSET 0 0 0
							}
						}
					}
				}
			}
		}
	}
	JOINT RightUpLeg_virtual
	{
		OFFSET 0.000000 0.000000 0.000000
		CHANNELS 3 Xrotation Yrotation Zrotation
		JOINT RightUpLeg
		{
			OFFSET -11.333700 -6.187798 -0.413800
			CHANNELS 3 Xrotation Yrotation Zrotation
			JOINT RightLeg
			{
				OFFSET -0.430392 -32.302628 3.733000
				CHANNELS 3 Xrotation Yrotation Zrotation
				JOINT RightFoot
				{
					OFFSET 0.430392 -48.264973 -6.423500
					CHANNELS 3 Xrotation Yrotation Zrotation
					JOINT RightToeBase
					{
						OFFSET -4.230900 -16.068199 23.438400
						CHANNELS 3 Xrotation Yrotation Zrotation
						JOINT RightToe_End
						{
							OFFSET -4.510700 0.695400 19.974600
							CHANNELS 3 Xrotation Yrotation Zrotation
							End Site
							{
								OFFSET 0 0 0
							}
						}
					}
				}
			}
		}
	}
	JOINT Spine_virtual
	{
		OFFSET 0.000000 0.000000 0.000000
		CHANNELS 3 Xrotation Yrotation Zrotation
		JOINT Spine
		{
			OFFSET -0.002400 12.777504 0.315300
			CHANNELS 3 Xrotation Yrotation Zrotation
			JOINT Spine1
			{
				OFFSET -0.002067 5.816869 0.032633
				CHANNELS 3 Xrotation Yrotation Zrotation
				JOINT Spine1_split
				{
					OFFSET -0.002067 5.816869 0.032633
					CHANNELS 3 Xrotation Yrotation Zrotation
					JOINT Spine2
					{
						OFFSET -0.002067 5.816869 0.032633
						CHANNELS 3 Xrotation Yrotation Zrotation
						JOINT Neck_virtual
						{
							OFFSET 0.000000 0.000000 0.000000
							CHANNELS 3 Xrotation Yrotation Zrotation
							JOINT Neck
							{
								OFFSET -0.003700 21.199493 -0.826900
								CHANNELS 3 Xrotation Yrotation Zrotation
								JOINT Head
								{
									OFFSET 0.000000 20.442200 4.834800
									CHANNELS 3 Xrotation Yrotation Zrotation
									JOINT HeadTop_End
									{
										OFFSET 0.000000 34.668396 4.968400
										CHANNELS 3 Xrotation Yrotation Zrotation
										End Site
										{
											OFFSET 0 0 0
										}
									}
								}
							}
						}
						JOINT LeftShoulder_virtual
						{
							OFFSET 0.000000 0.000000 0.000000
							CHANNELS 3 Xrotation Yrotation Zrotation
							JOINT LeftShoulder
							{
								OFFSET 3.288150 8.794197 -1.372250
								CHANNELS 3 Xrotation Yrotation Zrotation
								JOINT LeftShoulder_split
								{
									OFFSET 3.288150 8.794197 -1.372250
									CHANNELS 3 Xrotation Yrotation Zrotation
									JOINT LeftArm
									{
										OFFSET 11.953299 -2.279007 -0.146200
										CHANNELS 3 Xrotation Yrotation Zrotation
										JOINT LeftForeArm
										{
											OFFSET 18.448900 0.000000 0.000000
											CHANNELS 3 Xrotation Yrotation Zrotation
											JOINT LeftHand
											{
												OFFSET 29.527798 0.000000 0.000000
												CHANNELS 3 Xrotation Yrotation Zrotation
												End Site
												{
													OFFSET 0 0 0
												}
											}
										}
									}
								}
							}
						}
						JOINT RightShoulder_virtual
						{
							OFFSET 0.000000 0.000000 0.000000
							CHANNELS 3 Xrotation Yrotation Zrotation
							JOINT RightShoulder
							{
								OFFSET -3.249400 8.794197 -1.372250
								CHANNELS 3 Xrotation Yrotation Zrotation
								JOINT RightShoulder_split
								{
									OFFSET -3.249400 8.794197 -1.372250
									CHANNELS 3 Xrotation Yrotation Zrotation
									JOINT RightArm
									{
										OFFSET -11.953299 -2.279007 -0.146200
										CHANNELS 3 Xrotation Yrotation Zrotation
										JOINT RightForeArm
										{
											OFFSET -18.448900 0.000000 0.000000
											CHANNELS 3 Xrotation Yrotation Zrotation
											JOINT RightHand
											{
												OFFSET -29.527802 0.000000 0.000000
												CHANNELS 3 Xrotation Yrotation Zrotation
												End Site
												{
													OFFSET 0 0 0
												}
											}
										}
									}
								}
							}
						}
					}
				}
			}
		}
	}
}
MOTION
Frames: 4
Frame Time: 0.03333333
-1.609526 98.130386 0.195126 0.000000 0.000000 0.000000 -25.038676 -11.659356 -2.486394 5.624484 20.856717 12.335989 32.769100 13.353783 -9.277840 -14.065830 25.678858 8.918462 -1.484582 -0.664872 -4.127464 0.000000 0.000000 0.000000 -23.791111 -11.935939 -2.701629 13.651737 -11.524485 -3.677706 30.482994 -10.878426 -1.877246 -19.950713 -26.928951 0.541415 -6.801253 -1.314186 1.221026 0.000000 0.000000 0.000000 -23.718971 -9.953513 -1.997637 9.849580 -4.004574 -0.230814 3.306579 -1.094469 -0.059581 0.656573 1.333537 -0.018037 0.000000 0.000000 0.000000 3.463397 -2.117314 0.094938 2.645029 2.143641 -4.496389 -4.498221 -0.492413 3.581973 0.000000 0.000000 0.000000 3.963689 -2.458242 0.221642 1.079024 -15.433157 -11.114674 0.610920 -0.730112 -0.384593 -20.714886 0.333658 -39.107378 2.981982 -67.083188 2.757096 0.000000 0.000000 0.000000 3.345926 -2.157922 0.165520 -0.252244 13.076848 16.461494 2.190386 4.002479 -1.801349 -10.385078 -6.850989 62.516879 -0.419281 42.815635 1.486570 0.000000 0.000000 0.000000 
-1.906784 97.717842 0.109818 0.000000 0.000000 0.000000 -25.178090 -12.096525 -2.784529 4.930495 20.805062 13.264092 33.647277 12.872073 -9.380940 -13.439858 24.976438 8.629062 -1.042526 -0.343535 -5.146850 0.000000 0.000000 0.000000 -23.851941 -11.416780 -2.748345 13.554422 -11.765347 -3.412135 30.200518 -11.130420 -1.848222 -20.535331 -26.841394 0.255447 -6.766724 -1.220512 0.966143 0.000000 0.000000 0.000000 -23.940943 -10.070855 -2.382398 10.186843 -4.247348 -0.244287 3.282545 -1.170500 -0.043717 0.719806 0.892859 0.103862 0.000000 0.000000 0.000000 3.568162 -2.143272 0.110931 2.619817 2.072342 -4.337727 -4.558706 -0.653289 3.767893 0.000000 0.000000 0.000000 3.949486 -2.480494 0.243627 1.057176 -15.427558 -11.153977 0.601827 -0.919952 -0.192086 -20.856710 0.138541 -39.302223 3.095501 -67.323686 2.883083 0.000000 0.000000 0.000000 3.310532 -2.205000 0.188871 -0.275345 13.037453 16.509525 2.246295 3.439718 -1.698339 -10.555153 -6.957161 62.475098 -0.400027 42.786504 1.484064 0.000000 0.000000 0.000000 
-2.539458 97.159470 0.182327 0.000000 0.000000 0.000000 -25.281168 -12.787726 -3.619873 2.693788 20.280100 15.238581 36.090323 11.885285 -9.428943 -12.273405 23.301289 7.990338 -0.435879 -0.059727 -6.248155 0.000000 0.000000 0.000000 -24.009445 -11.317115 -3.403872 13.840059 -12.249082 -2.834907 29.662637 -11.182168 -1.658105 -21.741599 -26.380246 -0.369981 -5.695439 -1.068078 0.595131 0.000000 0.000000 0.000000 -24.044619 -10.818110 -3.380203 10.496293 -4.492507 -0.030664 3.247618 -1.263275 -0.022960 0.735350 0.615456 0.376849 0.000000 0.000000 0.000000 3.702192 -2.173207 0.104020 2.466013 1.927961 -4.053844 -4.789000 -1.036420 4.190653 0.000000 0.000000 0.000000 3.957522 -2.508907 0.256834 1.034635 -15.321407 -11.135888 0.527808 -1.042240 -0.128405 -21.320306 0.051175 -39.452416 3.237560 -67.407957 3.065644 0.000000 0.000000 0.000000 3.264585 -2.291066 0.181819 -0.319127 12.969500 16.565731 2.209310 3.105225 -1.575867 -10.789573 -7.029390 62.344061 -0.387214 42.701622 1.534616 0.000000 0.000000 0.000000 
-3.140972 96.641235 0.303967 0.000000 0.000000 0.000000 -25.346484 -13.620852 -4.778918 -0.479596 19.141207 17.529341 39.138507 10.486254 -9.235986 -11.161947 20.611045 6.924870 -0.168203 0.125850 -6.825575 0.000000 0.000000 0.000000 -24.229278 -11.884787 -4.507802 14.353549 -12.776601 -2.218009 29.057025 -10.878211 -1.365340 -22.904170 -25.648692 -0.944804 -4.272323 -0.890016 0.193065 0.000000 0.000000 0.000000 -24.005009 -12.217968 -4.727701 10.705128 -4.681446 0.357313 3.221492 -1.325840 -0.010239 0.887347 0.569105 0.526526 0.000000 0.000000 0.000000 3.816047 -2.196718 0.076433 2.241306 1.755596 -3.754532 -5.146016 -1.541029 4.689187 0.000000 0.000000 0.000000 3.973530 -2.536264 0.255423 1.007713 -15.170241 -11.069899 0.329834 -1.106620 -0.235351 -21.874620 0.113399 -39.495279 3.323356 -67.275219 3.207970 0.000000 0.000000 0.000000 3.226257 -2.382459 0.156232 -0.357143 12.906169 16.617236 2.085754 3.021067 -1.569993 -10.979468 -7.089958 62.153424 -0.379338 42.556767 1.625132 0.000000 0.000000 0.000000 
